<?xml version="1.0" encoding="UTF-8"?>
<svg width="38px" height="38px" viewBox="0 0 38 38" version="1.1" xmlns="http://www.w3.org/2000/svg" xmlns:xlink="http://www.w3.org/1999/xlink">
    <title>右转</title>
    <g id="页面-1" stroke="none" stroke-width="1" fill="none" fill-rule="evenodd">
        <g id="右转" fill="#358ACD" fill-rule="nonzero">
            <g id="形状" transform="translate(19.000000, 19.000000) scale(-1, 1) translate(-19.000000, -19.000000) ">
                <path d="M27.9180825,12.6664417 C28.8436245,12.6664417 29.7312587,13.0477365 30.3857157,13.7264456 C31.0401727,14.4051547 31.4078428,15.3256818 31.4078428,16.2855215 L31.4078428,34.3809202 C31.4078428,35.3407599 31.0401727,36.261287 30.3857157,36.9399961 C29.7312587,37.6187052 28.8436245,38 27.9180825,38 L3.4897603,38 C2.56421831,38 1.67658412,37.6187052 1.02212711,36.9399961 C0.367670103,36.261287 0,35.3407599 0,34.3809202 L0,16.2855215 C0,15.3256819 0.367670103,14.4051547 1.02212711,13.7264456 C1.67658412,13.0477365 2.56421831,12.6664417 3.4897603,12.6664417 L27.9180825,12.6664417 Z M27.9180825,16.2855215 L3.4897603,16.2855215 L3.4897603,34.3809202 L27.9180825,34.3809202 L27.9180825,16.2855215 Z M20.6070346,9.82003551 C20.608338,10.1895545 20.4212073,10.5322654 20.1149784,10.7211864 C19.8124432,10.9061407 19.4358283,10.9012586 19.1378455,10.7085196 L12.2979153,6.31857585 C12.0029137,6.12633885 11.8247177,5.78959324 11.826762,5.42828223 C11.826762,5.06275516 12.0065203,4.72618074 12.2979153,4.53798861 L19.1378455,0.14804484 C19.4358283,-0.0446941731 19.8124432,-0.0495763003 20.1149784,0.135378089 C20.4216148,0.325406968 20.6081981,0.669708457 20.6052897,1.04014801 L20.6052897,3.61874234 L24.0287446,3.61874234 C31.8004408,3.61874234 38,10.9600456 38,19.9046012 C38,20.9038743 37.2186862,21.7138641 36.2551199,21.7138641 C35.2915535,21.7138641 34.5103872,20.9038743 34.5102397,19.9046012 C34.5102397,13.0120638 29.9665718,7.48210996 24.402149,7.24506025 L24.0269997,7.23782208 L20.6070346,7.23782208 L20.6070346,9.82003551 Z"></path>
            </g>
        </g>
    </g>
</svg>