<?xml version="1.0" encoding="UTF-8"?>
<svg width="38px" height="38px" viewBox="0 0 38 38" version="1.1" xmlns="http://www.w3.org/2000/svg" xmlns:xlink="http://www.w3.org/1999/xlink">
    <title>缩小</title>
    <g id="页面-1" stroke="none" stroke-width="1" fill="none" fill-rule="evenodd">
        <g id="缩小" fill="#358ACD" fill-rule="nonzero">
            <path d="M37.3427076,34.1992993 L31.9305558,28.789853 C34.2887891,25.7641444 35.708612,21.9730198 35.708612,17.8494154 C35.708612,8.00668346 27.6985893,0 17.854306,0 C8.0088352,0 0,8.00668346 0,17.8494154 C0,27.6909598 8.0088352,35.6983557 17.854306,35.6983557 C21.9736499,35.6983557 25.7612537,34.2833692 28.7844872,31.9305047 L34.1978265,37.3423258 C35.0716368,38.2153703 36.4838598,38.219645 37.3519701,37.3525377 C38.2200329,36.483768 38.2150454,35.0737687 37.3427076,34.1992993 Z M3.40066865,17.8491779 C3.40066865,9.88167953 9.88446833,3.39974841 17.854306,3.39974841 C25.8241437,3.39974841 32.3077059,9.88172702 32.3077059,17.8491779 C32.3077059,25.8166287 25.8241912,32.2986548 17.854306,32.2986548 C9.88442083,32.2986548 3.40066865,25.8166762 3.40066865,17.8491779 Z M23.8704205,16.1494462 L19.5546166,16.1494462 L16.1539954,16.1494462 L11.837479,16.1494462 C10.9344562,16.1494462 10.2024809,16.9108724 10.2024809,17.8501278 C10.2024809,18.7891933 10.9335537,19.5498595 11.837479,19.5498595 L16.1539954,19.5498595 L19.5546166,19.5498595 L23.8704205,19.5498595 C24.7732059,19.5498595 25.5061311,18.7889083 25.5061311,17.8501278 C25.5061311,16.9108249 24.7732059,16.1494462 23.8704205,16.1494462 Z" id="形状"></path>
        </g>
    </g>
</svg>